Patient4_TMGait_0pt6_02_right_10_GRF.mot
version=1
nRows=32
nColumns=19
inDegrees=no
endheader
time	F1x	F1y	F1z	M1x	M1y	M1z	F2x	F2y	F2z	M2x	M2y	M2z	EC1x	EC1y	EC1z	EC2x	EC2y	EC2z
11.59	15.4491	769.8938	52.0775	-285.3553	-38.0655	745.5924	-7.4066	2.9252	1.9734	1.2456	-0.48166	-0.50458	-0.0592	0.0182	-0.0073	-0.0462	0.0165	0.9585
11.6032	16.6341	753.2962	52.067	-279.1588	-38.0344	727.7741	-5.0571	2.825	1.3601	1.1897	-0.34817	0.4985	-0.0592	0.0182	-0.0073	-0.0462	0.0165	0.9585
11.6164	18.0349	735.6586	52.0105	-272.4345	-37.7425	708.4707	-3.1148	2.7923	0.82712	1.1631	-0.19807	1.4371	-0.0592	0.0182	-0.0073	-0.0462	0.0165	0.9585
11.6296	19.479	718.7713	51.9268	-265.8342	-37.237	689.5404	-1.6853	2.8198	0.40714	1.1647	-0.048633	2.2364	-0.0592	0.0182	-0.0073	-0.0462	0.0165	0.9585
11.6429	20.7709	704.308	51.8384	-259.9884	-36.6175	672.7388	-0.7273	2.8748	0.097609	1.1863	0.087838	2.8355	-0.0592	0.0182	-0.0073	-0.0462	0.0165	0.9585
11.6561	21.7587	693.5521	51.7881	-255.3899	-36.01	659.4209	-0.18308	2.9394	-0.11977	1.2197	0.21357	3.2454	-0.0592	0.0182	-0.0073	-0.0462	0.0165	0.9585
11.6693	22.3714	687.236	51.7992	-252.3257	-35.4962	650.3561	0.056306	2.9704	-0.2648	1.2464	0.32327	3.4474	-0.0592	0.0182	-0.0073	-0.0462	0.0165	0.9585
11.6825	22.62	685.4951	51.9049	-250.8539	-35.139	645.7046	0.07987	2.9232	-0.35384	1.2436	0.41522	3.4397	-0.0592	0.0182	-0.0073	-0.0462	0.0165	0.9585
11.6957	22.6043	687.9245	52.1142	-250.8307	-34.9453	645.0709	-0.040325	2.7393	-0.40383	1.1819	0.49692	3.2044	-0.0592	0.0182	-0.0073	-0.0462	0.0165	0.9585
11.7089	22.4628	693.7546	52.4507	-251.9726	-34.9157	647.6936	-0.23089	2.3341	-0.42595	1.024	0.56768	2.6793	-0.0592	0.0182	-0.0073	-0.0462	0.0165	0.9585
11.7221	22.3723	702.0306	52.9184	-253.9296	-35.013	652.6081	-0.45705	1.6237	-0.43593	0.72921	0.63479	1.8068	-0.0592	0.0182	-0.0073	-0.0462	0.0165	0.9585
11.7354	22.5174	711.7851	53.5355	-256.3468	-35.1995	658.818	-0.6564	0.50302	-0.44081	0.25411	0.68709	0.47552	-0.0592	0.0182	-0.0073	-0.0462	0.0165	0.9585
11.7486	23.0861	722.1486	54.2995	-258.9088	-35.4099	665.4105	-0.79754	-1.0861	-0.44759	-0.42769	0.71844	-1.3641	-0.0592	0.0182	-0.0073	-0.0462	0.0165	0.9585
11.7618	24.246	732.3829	55.2227	-261.3558	-35.5932	671.6161	-0.81531	-3.1473	-0.45315	-1.3147	0.70265	-3.7235	-0.0592	0.0182	-0.0073	-0.0462	0.0165	0.9585
11.775	26.1099	741.9356	56.2928	-263.5022	-35.6893	676.8818	-0.63745	-5.5481	-0.45554	-2.348	0.61057	-6.4668	-0.0592	0.0182	-0.0073	-0.0462	0.0165	0.9585
11.7882	28.7462	750.4539	57.4746	-265.2433	-35.6329	680.8558	-0.18526	-7.9474	-0.43847	-3.3808	0.39443	-9.202	-0.0592	0.0182	-0.0073	-0.0462	0.0165	0.9585
11.8014	32.1448	757.7782	58.694	-266.5499	-35.3559	683.4087	0.64449	-9.721	-0.38568	-4.1442	-0.0056991	-11.2187	-0.0592	0.0182	-0.0073	-0.0462	0.0165	0.9585
11.8146	36.2415	763.8441	59.8621	-267.4328	-34.7966	684.5254	1.9137	-9.8567	-0.25493	-4.2063	-0.66863	-11.3493	-0.0592	0.0182	-0.0073	-0.0462	0.0165	0.9585
11.8279	40.9014	768.558	60.8938	-267.8944	-33.9205	684.1905	3.6677	-6.9211	-0.0054919	-2.9519	-1.6547	-7.9519	-0.0592	0.0182	-0.0073	-0.0462	0.0165	0.9585
11.8411	45.9353	771.7002	61.6887	-267.8919	-32.7012	682.3061	5.8423	0.96829	0.40923	0.42358	-2.9833	1.1464	-0.0592	0.0182	-0.0073	-0.0462	0.0165	0.9585
11.8543	51.1256	772.8306	62.1542	-267.3059	-31.1335	678.5949	8.2339	16.0037	1.029	6.858	-4.6033	18.4663	-0.0592	0.0182	-0.0073	-0.0462	0.0165	0.9585
11.8675	56.224	771.2029	62.1562	-265.9061	-29.195	672.5325	10.3986	40.3898	1.874	17.294	-6.3446	46.5423	-0.0592	0.0182	-0.0073	-0.0462	0.0165	0.9585
11.8807	60.9877	765.6216	61.5358	-263.3012	-26.8562	663.2126	11.5659	75.7825	2.9183	32.4383	-7.8506	87.2841	-0.0592	0.0182	-0.0073	-0.0462	0.0165	0.9585
11.8939	65.1651	754.4613	60.0754	-258.9461	-24.0511	649.3866	10.5349	122.4296	4.0601	52.4002	-8.5045	140.9731	-0.0592	0.0182	-0.0073	-0.0462	0.0165	0.9585
11.9071	68.4829	735.7809	57.5652	-252.1803	-20.7309	629.5532	5.814	178.1181	5.1399	76.236	-7.5137	205.0722	-0.0592	0.0182	-0.0073	-0.0462	0.0165	0.9585
11.9204	70.6248	707.6175	53.8393	-242.3266	-16.8996	602.1912	-3.0496	237.6211	5.7064	101.7022	-4.2025	273.5252	-0.0592	0.0182	-0.0073	-0.0462	0.0165	0.9585
11.9336	71.2234	668.4803	48.874	-228.8557	-12.6885	566.1681	-14.2577	294.0718	4.8236	125.818	1.6804	338.2949	-0.0592	0.0182	-0.0073	-0.0462	0.0165	0.9585
11.9468	69.935	617.9096	42.8654	-211.5768	-8.3918	521.1792	-25.394	342.2628	2.1574	146.3469	9.4168	393.0925	-0.0592	0.0182	-0.0073	-0.0462	0.0165	0.9585
11.96	66.5053	556.8494	36.2331	-190.762	-4.4266	468.0732	-35.0005	381.9269	-1.8881	163.1616	17.9389	437.3498	-0.0592	0.0182	-0.0073	-0.0462	0.0165	0.9585
11.9732	60.903	487.5951	29.5223	-167.1443	-1.218	408.7632	-42.6483	416.6839	-6.5762	177.7991	26.2641	475.1742	-0.0592	0.0182	-0.0073	-0.0462	0.0165	0.9585
11.9864	53.3009	413.5193	23.2168	-141.838	0.94031	346.0169	-48.4762	450.9844	-11.3412	192.1533	33.8439	511.7441	-0.0592	0.0182	-0.0073	-0.0462	0.0165	0.9585
11.9996	44.1124	338.6123	17.6679	-116.192	1.937	283.0701	-52.8503	488.1297	-15.9146	207.6135	40.5612	550.919	-0.0592	0.0182	-0.0073	-0.0462	0.0165	0.9585
